<svg xmlns="http://www.w3.org/2000/svg" viewBox="0 0 457 133.51"><defs><style>.cls-1{font-size:90px;fill:#313320;font-family:Poppins-Black, Poppins Black;font-weight:800;}.cls-2{fill:#9da75d;}</style></defs><g id="Layer_2" data-name="Layer 2"><g id="objects"><text class="cls-1" transform="translate(0 77.08)">HOTEO</text><path class="cls-2" d="M290,88.22a41.49,41.49,0,0,1-14,0,37.79,37.79,0,0,1-7-2,35.9,35.9,0,0,0,7,9.86,42.91,42.91,0,0,0,14.75,8.9c19.84,6.92,49.18-4.24,49.18-4.24C382.74,85.93,379.65,51,420,43.36c0,0-18.84,5.87-44.06,44.34-19.95,30.45-58,28.07-58.66,28.12.41.29,27.5,18.76,60.73,5.45,37-14.82,34.08-68.68,79-80.1C422.57,19.83,386.93,14,363.71,22.51,342.93,30.12,332,44.08,332,44.08a61.36,61.36,0,0,0-9,16,48.71,48.71,0,0,1-11,16.14C309,79.08,301.56,86.16,290,88.22Z"/></g></g></svg>